<?xml version="1.0" standalone="no"?>
<!DOCTYPE svg PUBLIC "-//W3C//DTD SVG 20010904//EN"
 "http://www.w3.org/TR/2001/REC-SVG-20010904/DTD/svg10.dtd">
<svg version="1.0" xmlns="http://www.w3.org/2000/svg"
 width="1200.000000pt" height="385.000000pt" viewBox="0 0 1200.000000 385.000000"
 preserveAspectRatio="xMidYMid meet">

<g transform="translate(0.000000,385.000000) scale(0.100000,-0.100000)"
fill="#000000" stroke="none">
<path d="M1690 3540 l0 -200 200 0 200 0 0 200 0 200 -200 0 -200 0 0 -200z"/>
<path d="M3410 2620 l0 -1122 478 5 c433 4 485 6 567 24 295 67 471 212 530
439 18 69 20 211 4 286 -40 185 -177 318 -394 384 -79 23 -84 29 -38 44 72 23
190 90 241 138 99 91 152 219 152 371 0 240 -128 407 -377 490 -137 46 -222
53 -705 58 l-458 5 0 -1122z m937 766 c149 -48 223 -189 179 -341 -23 -77 -97
-153 -179 -184 -77 -28 -220 -43 -387 -39 l-135 3 -3 280 c-1 154 0 286 3 293
8 22 450 11 522 -12z m-44 -905 c126 -33 188 -77 235 -165 24 -45 27 -62 27
-151 0 -93 -2 -104 -31 -155 -36 -65 -92 -110 -168 -139 -86 -32 -166 -41
-363 -41 l-183 0 0 335 0 335 203 0 c169 0 217 -3 280 -19z"/>
<path d="M6620 2620 l0 -1120 200 0 200 0 0 1120 0 1120 -200 0 -200 0 0
-1120z"/>
<path d="M7377 3733 c-4 -3 -7 -129 -7 -280 l0 -273 -125 0 -125 0 0 -150 0
-150 124 0 124 0 4 -522 c4 -450 7 -531 21 -581 49 -170 142 -255 320 -291 77
-16 285 -22 346 -10 l31 7 0 146 0 146 -104 0 c-90 0 -108 3 -132 21 -42 31
-65 67 -75 115 -4 24 -8 252 -9 507 l0 462 155 0 155 0 0 150 0 150 -155 0
-155 0 0 280 0 280 -193 0 c-107 0 -197 -3 -200 -7z"/>
<path d="M8237 3733 c-4 -3 -7 -93 -7 -200 l0 -193 200 0 200 0 0 200 0 200
-193 0 c-107 0 -197 -3 -200 -7z"/>
<path d="M695 3209 c-130 -17 -267 -58 -375 -112 l-105 -52 -3 -173 -2 -174
37 23 c249 154 400 204 598 197 191 -7 255 -59 255 -209 0 -52 -4 -80 -13 -88
-8 -6 -147 -56 -310 -110 -326 -109 -396 -139 -486 -207 -111 -83 -168 -191
-178 -334 -10 -145 36 -268 137 -364 194 -185 542 -183 796 5 29 21 55 43 59
49 17 27 33 4 51 -72 l20 -83 162 -3 163 -3 -4 653 c-3 587 -5 659 -21 712
-53 179 -157 279 -343 327 -91 24 -326 34 -438 18z m383 -1287 c-43 -46 -150
-115 -214 -139 -137 -49 -271 -18 -321 76 -47 89 -24 213 51 279 51 44 85 60
296 136 102 37 190 72 195 77 7 7 11 -59 13 -197 2 -203 2 -208 -20 -232z"/>
<path d="M3120 3213 c-141 -24 -285 -117 -399 -258 l-61 -76 0 150 0 151 -195
0 -195 0 0 -840 0 -840 200 0 200 0 0 454 c0 425 1 458 20 517 25 82 53 127
119 194 111 113 231 166 386 171 l100 4 3 184 c2 183 2 184 -20 190 -25 6
-117 6 -158 -1z"/>
<path d="M5690 3214 c-163 -21 -320 -67 -442 -131 l-68 -35 0 -174 0 -174 63
41 c100 65 241 129 345 155 82 21 115 25 212 22 96 -3 123 -7 162 -26 73 -36
92 -70 96 -173 3 -66 1 -88 -11 -97 -8 -7 -148 -57 -311 -112 -333 -111 -431
-157 -523 -243 -78 -73 -118 -151 -134 -260 -23 -154 20 -287 125 -393 108
-108 232 -150 416 -141 168 8 270 47 416 159 l61 46 12 -52 c6 -29 16 -69 22
-89 l10 -37 159 0 160 0 0 633 c0 499 -3 646 -14 697 -42 195 -153 308 -353
361 -77 20 -316 34 -403 23z m370 -1068 l0 -204 -56 -51 c-84 -74 -189 -123
-279 -129 -86 -5 -133 8 -182 51 -46 41 -63 82 -63 154 1 104 51 174 161 226
30 13 126 50 214 82 88 31 167 61 175 66 8 5 18 9 23 9 4 0 7 -92 7 -204z"/>
<path d="M9430 3209 c-172 -26 -310 -96 -430 -218 -102 -103 -167 -217 -208
-369 -24 -88 -26 -114 -26 -277 -1 -215 17 -301 94 -461 83 -172 216 -295 390
-360 120 -45 214 -58 378 -51 160 6 282 34 410 92 l82 38 0 173 c0 96 -2 174
-4 174 -2 0 -42 -24 -89 -53 -112 -71 -224 -107 -347 -114 -263 -15 -425 105
-496 367 -24 90 -25 291 -1 378 29 106 67 172 142 248 54 54 83 76 128 93 178
66 377 39 547 -74 l80 -54 -2 182 -3 182 -76 33 c-125 53 -218 72 -369 77 -74
2 -164 -1 -200 -6z"/>
<path d="M1690 2340 l0 -840 200 0 200 0 0 840 0 840 -200 0 -200 0 0 -840z"/>
<path d="M8230 2340 l0 -840 200 0 200 0 0 840 0 840 -200 0 -200 0 0 -840z"/>
<path d="M10290 1389 c-613 -31 -1210 -105 -2350 -290 -1506 -244 -1958 -304
-2680 -351 -250 -16 -935 -16 -1150 0 -436 34 -901 104 -1200 182 -41 10 -76
18 -77 16 -2 -1 174 -70 389 -153 402 -154 527 -192 838 -252 478 -94 1063
-129 1645 -101 564 28 954 72 2121 244 1142 168 1713 225 2274 226 l195 1 250
244 250 244 -175 -1 c-96 0 -245 -5 -330 -9z"/>
</g>
</svg>
