<?xml version="1.0" standalone="no"?>
<!DOCTYPE svg PUBLIC "-//W3C//DTD SVG 20010904//EN"
 "http://www.w3.org/TR/2001/REC-SVG-20010904/DTD/svg10.dtd">
<svg version="1.0" xmlns="http://www.w3.org/2000/svg"
 width="520.000000pt" height="321.000000pt" viewBox="0 0 520.000000 321.000000"
 preserveAspectRatio="xMidYMid meet">

<g transform="translate(0.000000,321.000000) scale(0.100000,-0.100000)"
fill="#000000" stroke="none">
<path d="M582 2009 c-115 -22 -225 -104 -280 -207 -109 -204 -25 -455 185
-555 63 -29 76 -32 169 -32 96 0 103 2 176 38 193 95 274 308 196 512 -44 116
-174 221 -302 244 -67 12 -83 12 -144 0z m230 -51 c283 -132 296 -532 22 -680
-186 -100 -422 -23 -519 169 -28 53 -30 67 -30 163 0 88 4 113 23 154 45 99
125 172 225 208 78 27 204 21 279 -14z"/>
<path d="M320 1703 c0 -5 21 -19 48 -32 26 -12 88 -49 139 -82 136 -88 297
-151 340 -134 13 5 -2 12 -48 24 -37 9 -83 30 -104 45 l-38 29 39 20 c27 14
63 21 118 23 43 2 80 5 83 7 8 8 -97 17 -123 11 -20 -5 -25 -4 -19 6 5 8 32
11 84 10 105 -4 109 1 16 16 l-80 13 93 -4 c50 -2 92 0 92 4 0 5 -37 13 -82
19 l-83 11 98 -4 c53 -3 97 -1 97 4 0 10 -100 21 -196 21 -72 0 -72 0 -95 -36
-52 -84 -151 -97 -234 -30 -19 15 -19 16 8 6 16 -5 37 -15 48 -20 10 -6 19 -7
19 -3 0 12 -130 68 -160 69 -14 1 -33 4 -42 9 -10 4 -18 3 -18 -2z"/>
<path d="M2535 1883 c-54 -14 -95 -66 -95 -123 0 -27 -3 -30 -30 -30 -29 0
-30 -2 -30 -45 0 -43 1 -45 30 -45 l30 0 0 -150 0 -150 55 0 54 0 3 148 3 147
43 3 42 3 0 45 0 44 -45 0 c-46 0 -53 7 -35 41 8 13 21 19 45 19 l35 0 0 50 0
50 -42 -1 c-24 -1 -52 -4 -63 -6z"/>
<path d="M1600 1610 l0 -270 175 0 175 0 0 55 0 55 -115 0 -115 0 0 215 0 215
-60 0 -60 0 0 -270z"/>
<path d="M2970 1610 l0 -270 55 0 55 0 0 121 c0 151 12 179 76 179 55 0 63
-21 66 -165 l3 -130 58 -3 59 -3 -4 153 c-4 170 -14 205 -68 233 -41 21 -118
19 -157 -5 l-33 -20 0 90 0 90 -55 0 -55 0 0 -270z"/>
<path d="M2730 1785 c0 -54 0 -55 -30 -55 -29 0 -30 -2 -30 -45 0 -43 1 -45
30 -45 l30 0 0 -105 c0 -156 29 -195 145 -195 l55 0 0 45 c0 41 -2 45 -25 45
-14 0 -34 9 -45 20 -18 18 -20 31 -18 103 l3 82 43 3 42 3 0 45 0 44 -45 0
-45 0 0 55 0 55 -55 0 -55 0 0 -55z"/>
<path d="M3474 1726 c-36 -16 -74 -61 -74 -87 0 -16 8 -19 54 -19 39 0 55 4
60 16 4 11 18 14 58 12 46 -3 53 -6 56 -25 2 -13 2 -23 0 -23 -2 -1 -42 -7
-91 -14 -101 -16 -133 -33 -154 -83 -29 -70 7 -144 79 -163 53 -15 112 -4 148
27 l30 25 0 -27 c0 -25 2 -26 53 -23 l52 3 0 145 c0 159 -9 197 -54 226 -35
24 -174 30 -217 10z m160 -239 c-10 -35 -34 -56 -70 -63 -50 -9 -74 2 -74 36
0 25 5 31 38 39 45 12 94 18 105 13 4 -2 5 -13 1 -25z"/>
<path d="M3931 1714 c-30 -25 -31 -25 -31 -5 0 19 -6 21 -55 21 l-55 0 2 -192
3 -193 58 -3 57 -3 0 131 c0 117 2 132 20 150 11 11 33 20 50 20 17 0 39 -9
50 -20 18 -18 20 -33 20 -150 l0 -131 56 3 56 3 -1 149 c-2 174 -12 209 -65
231 -58 24 -129 20 -165 -11z"/>
<path d="M4305 1733 c-68 -17 -107 -90 -85 -157 15 -46 55 -72 124 -82 71 -9
96 -20 96 -43 0 -36 -88 -45 -117 -11 -13 15 -30 20 -70 20 -47 0 -53 -2 -53
-20 0 -30 28 -69 64 -88 39 -20 179 -23 216 -3 68 37 92 89 70 156 -14 42 -60
70 -135 80 -78 11 -86 14 -83 38 2 18 11 23 46 25 31 2 44 -1 48 -12 5 -12 21
-16 66 -16 57 0 59 1 53 23 -13 41 -36 68 -70 83 -33 13 -128 17 -170 7z"/>
<path d="M4683 1725 c-31 -13 -73 -66 -73 -92 0 -19 104 -17 120 2 7 9 29 15
55 15 26 0 48 -6 55 -15 21 -25 -5 -42 -76 -49 -125 -13 -174 -49 -174 -130 0
-74 38 -113 118 -122 37 -4 57 0 94 18 44 23 47 23 51 6 4 -14 15 -18 56 -18
l51 0 0 148 c0 169 -11 205 -70 234 -43 22 -160 24 -207 3z m167 -230 c0 -62
-112 -103 -144 -52 -23 36 17 59 137 76 4 1 7 -10 7 -24z"/>
<path d="M1980 1590 c0 -207 26 -254 142 -255 43 0 63 5 87 23 30 22 31 22 31
2 0 -18 6 -20 55 -20 l55 0 0 195 0 195 -60 0 -60 0 0 -128 c0 -147 -6 -163
-63 -165 -64 -2 -71 15 -76 163 l-3 130 -54 0 -54 0 0 -140z"/>
</g>
</svg>
