<?xml version="1.0" standalone="no"?>
<!DOCTYPE svg PUBLIC "-//W3C//DTD SVG 20010904//EN"
 "http://www.w3.org/TR/2001/REC-SVG-20010904/DTD/svg10.dtd">
<svg version="1.0" xmlns="http://www.w3.org/2000/svg"
 width="768.000000pt" height="513.000000pt" viewBox="0 0 768.000000 513.000000"
 preserveAspectRatio="xMidYMid meet">

<g transform="translate(0.000000,513.000000) scale(0.100000,-0.100000)"
fill="#000000" stroke="none">
<path d="M685 3525 c-262 -49 -465 -205 -589 -453 -58 -114 -78 -206 -79 -352
-1 -148 15 -225 73 -347 112 -239 293 -389 555 -461 86 -24 308 -22 395 2 254
72 463 254 556 484 47 118 59 180 59 317 0 147 -16 223 -70 342 -158 345 -528
537 -900 468z m355 -75 c133 -38 224 -93 330 -200 81 -80 103 -110 143 -190
64 -129 81 -199 80 -340 0 -230 -78 -409 -246 -566 -325 -305 -865 -251 -1122
111 -104 146 -145 275 -145 449 0 210 66 378 203 524 113 119 268 202 432 232
78 14 240 4 325 -20z"/>
<path d="M1041 3070 l-183 -5 -40 -45 c-87 -98 -169 -210 -162 -223 28 -48 33
-48 88 9 l52 54 120 0 c75 1 127 5 141 13 35 19 101 85 144 143 39 53 45 66
32 62 -5 -1 -91 -5 -192 -8z"/>
<path d="M430 2808 c-29 -31 -54 -81 -74 -147 -41 -138 0 -247 113 -300 l56
-26 346 -3 347 -3 49 68 c68 94 70 97 45 84 -33 -17 -516 -15 -531 3 -23 27
12 35 169 38 l154 3 78 95 c109 134 165 215 140 201 -13 -7 -93 -11 -209 -11
-162 0 -192 -3 -215 -18 -15 -9 -64 -64 -109 -122 -46 -58 -98 -124 -116 -147
-62 -78 -140 -77 -178 4 -39 81 -15 166 50 179 19 3 35 9 35 12 0 7 -71 95
-85 104 -19 14 -44 8 -65 -14z"/>
<path d="M5597 3219 c-119 -28 -207 -121 -207 -219 0 -86 64 -150 164 -165 46
-8 106 -61 106 -95 0 -52 -50 -90 -119 -90 -32 0 -44 6 -65 31 -14 17 -26 41
-26 55 0 23 -2 24 -79 24 l-79 0 -6 -35 c-13 -66 15 -129 70 -161 88 -52 292
-42 374 17 121 88 158 264 67 320 -18 10 -68 30 -112 44 -89 27 -125 56 -125
98 0 77 171 91 182 14 3 -20 9 -22 72 -25 80 -3 89 4 80 63 -10 62 -30 91 -77
114 -47 23 -147 27 -220 10z"/>
<path d="M1965 2998 c-80 -290 -79 -367 8 -432 23 -17 46 -22 127 -24 240 -9
336 91 420 435 21 85 42 173 45 194 l7 39 -75 0 -74 0 -58 -217 c-31 -120 -67
-231 -78 -248 -63 -92 -172 -121 -208 -54 -27 52 -18 101 97 502 5 15 -3 17
-73 17 l-79 0 -59 -212z"/>
<path d="M2656 3163 c-29 -86 -35 -82 130 -85 l145 -3 -213 -196 c-204 -187
-214 -198 -225 -245 -6 -27 -15 -57 -18 -67 -7 -16 8 -17 261 -15 l268 3 13
44 c7 24 15 52 18 62 6 18 -3 19 -167 19 l-173 0 55 53 c30 28 127 119 215
200 133 124 163 156 177 195 32 88 50 82 -226 82 l-244 0 -16 -47z"/>
<path d="M3186 2893 c-49 -175 -91 -324 -93 -330 -7 -17 342 -18 417 -2 105
22 180 113 180 217 0 63 -11 87 -51 111 l-29 18 40 27 c89 59 130 184 78 234
-40 37 -73 42 -267 42 l-187 0 -88 -317z m375 187 c13 -7 19 -21 19 -43 -1
-64 -40 -87 -144 -87 -42 0 -76 4 -76 8 0 11 31 115 37 125 7 11 142 8 164 -3z
m-49 -267 c10 -9 18 -29 18 -45 0 -71 -50 -102 -162 -102 -43 0 -80 3 -83 5
-2 3 0 21 5 40 5 19 14 53 20 77 l11 42 86 0 c66 0 91 -4 105 -17z"/>
<path d="M3885 3113 c-59 -212 -97 -352 -120 -435 -12 -47 -26 -96 -30 -107
-6 -21 -6 -21 252 -21 l258 0 16 60 c9 34 13 62 10 65 -4 2 -83 4 -176 4 -94
0 -170 4 -169 8 1 4 9 38 19 75 l17 68 155 2 156 3 13 45 c8 25 14 51 14 57 0
9 -40 13 -153 15 l-153 3 18 62 19 63 176 2 176 3 18 63 17 62 -252 0 -253 0
-28 -97z"/>
<path d="M4515 3198 c-2 -7 -25 -89 -50 -183 -26 -93 -64 -233 -86 -310 -21
-77 -39 -143 -39 -147 0 -5 33 -8 74 -8 63 0 75 3 79 18 3 9 15 53 27 97 19
69 29 86 67 123 25 23 48 40 51 37 3 -3 29 -65 57 -138 l50 -132 93 -3 c53 -2
92 1 92 7 0 5 -30 78 -66 163 -36 84 -72 167 -79 185 l-13 31 159 134 160 133
-91 3 -90 3 -148 -126 c-81 -69 -148 -121 -150 -115 -2 5 10 60 27 120 17 61
31 113 31 115 0 3 -34 5 -75 5 -52 0 -77 -4 -80 -12z"/>
<path d="M5095 2893 c-48 -175 -90 -324 -92 -330 -4 -10 15 -13 74 -13 l78 0
22 83 c13 45 54 193 92 330 l68 247 -77 0 -76 0 -89 -317z"/>
<path d="M5966 3198 c-3 -7 -11 -34 -19 -60 -9 -25 -13 -49 -9 -52 3 -3 45 -6
94 -6 48 0 88 -3 88 -7 0 -4 -31 -120 -70 -259 -38 -138 -70 -254 -70 -258 0
-3 34 -6 75 -6 l74 0 11 38 c6 20 39 138 74 262 l63 225 95 3 95 3 16 59 c10
33 17 62 17 65 0 3 -119 5 -265 5 -204 0 -267 -3 -269 -12z"/>
<path d="M6619 3102 c-36 -59 -126 -201 -199 -317 -73 -115 -134 -216 -137
-222 -4 -10 15 -13 74 -13 l79 0 35 60 34 60 111 0 111 0 7 -60 7 -60 80 0 79
0 -5 53 c-6 51 -29 346 -42 520 l-6 87 -81 0 -81 0 -66 -108z m110 -254 l1
-68 -75 0 c-48 0 -75 4 -75 11 0 6 30 60 68 120 l67 110 7 -53 c3 -29 6 -83 7
-120z"/>
<path d="M7125 3198 c-10 -31 -175 -636 -175 -641 0 -13 150 -8 155 6 2 6 26
95 54 196 28 101 52 186 55 188 2 2 33 -85 68 -194 l64 -198 79 0 79 0 17 60
c61 213 159 572 159 583 0 8 -21 12 -73 12 l-72 0 -54 -195 c-30 -107 -57
-195 -61 -195 -4 0 -35 88 -69 195 l-63 195 -79 0 c-55 0 -81 -4 -84 -12z"/>
<path d="M5780 2328 c0 -7 -3 -23 -6 -35 -6 -22 -3 -23 45 -23 34 0 51 4 51
13 0 6 3 22 6 35 6 21 3 22 -45 22 -34 0 -51 -4 -51 -12z"/>
<path d="M5495 2224 c-85 -21 -145 -60 -145 -95 0 -16 7 -19 45 -19 32 0 47 5
52 15 8 22 61 47 83 40 14 -4 20 -15 20 -34 0 -33 -22 -45 -109 -61 -72 -13
-112 -38 -134 -81 -14 -29 -15 -42 -6 -68 6 -17 19 -36 29 -41 30 -16 88 -11
130 10 35 18 40 18 40 5 0 -13 10 -15 48 -13 l47 3 7 60 c4 33 16 87 27 119
27 76 26 107 -1 133 -23 22 -95 36 -133 27z m35 -189 c0 -24 -44 -84 -69 -94
-32 -14 -71 -1 -71 23 0 16 38 52 70 65 27 11 70 14 70 6z"/>
<path d="M6813 2220 c-77 -16 -147 -70 -128 -100 13 -22 76 -11 112 20 36 32
61 38 81 18 37 -37 -1 -71 -98 -88 -75 -13 -122 -39 -138 -75 -43 -94 49 -158
151 -106 32 16 39 17 44 5 3 -9 20 -14 49 -14 42 0 44 1 44 29 0 16 12 69 26
117 39 129 39 137 12 167 -27 29 -88 40 -155 27z m43 -207 c-8 -33 -59 -83
-85 -83 -10 0 -24 7 -31 15 -30 36 28 89 104 94 15 1 17 -4 12 -26z"/>
<path d="M7484 2219 c-53 -12 -94 -55 -101 -105 -6 -49 11 -66 88 -88 75 -21
89 -39 59 -71 -13 -14 -33 -25 -45 -25 -23 0 -55 28 -55 49 0 8 -15 11 -47 9
-40 -2 -49 -7 -51 -24 -2 -12 8 -35 23 -52 30 -36 80 -47 156 -37 111 15 184
145 106 187 -12 6 -44 17 -71 23 -61 14 -78 35 -52 64 25 27 72 27 88 1 9 -14
24 -20 50 -20 44 0 48 5 36 47 -13 49 -82 65 -184 42z"/>
<path d="M5710 2063 c-23 -87 -43 -162 -44 -168 0 -5 20 -11 46 -13 l46 -3 16
53 c22 79 76 278 76 283 0 3 -22 5 -48 5 l-49 0 -43 -157z"/>
<path d="M5920 2178 c-13 -51 -69 -256 -76 -280 -5 -16 2 -18 44 -18 46 0 50
2 56 28 41 166 79 227 148 238 37 6 58 29 58 65 0 16 -54 10 -95 -11 -22 -11
-41 -20 -42 -20 -2 0 1 9 7 20 10 19 8 20 -39 20 l-50 0 -11 -42z"/>
<path d="M6170 2127 c0 -52 3 -129 7 -171 l6 -77 50 3 c31 2 53 9 58 18 5 8
29 53 54 100 l45 85 -1 -100 -2 -100 52 0 52 0 95 164 c52 90 94 166 94 168 0
2 -23 3 -52 1 l-52 -3 -50 -97 c-28 -54 -53 -98 -56 -98 -3 0 -4 45 -2 100 l3
100 -45 0 -46 0 -52 -102 -53 -103 -3 103 -3 102 -49 0 -50 0 0 -93z"/>
<path d="M7058 2052 c24 -161 24 -169 8 -195 -11 -16 -31 -29 -51 -33 -30 -5
-44 -23 -45 -56 0 -11 49 -10 93 3 63 17 100 63 212 258 58 101 105 186 105
188 0 1 -22 3 -49 3 l-50 0 -53 -100 c-29 -55 -56 -100 -60 -100 -5 0 -8 24
-8 54 0 29 -3 74 -6 100 l-7 46 -57 0 -57 0 25 -168z"/>
</g>
</svg>
